<svg width="24" height="24" viewBox="0 0 24 24" fill="none" xmlns="http://www.w3.org/2000/svg">
<path d="M11.015 4.115L14.885 7.985H11V4.115M9.5 2.75V8C9.5 8.825 10.175 9.5 11 9.5H16.25V8C16.25 8 14 6.5 13.25 5.75C12.5 5 11 2.75 11 2.75H9.5Z" fill="black"/>
<path d="M3.5 21.5V3.5H10.385L15.515 8.63V11.015H17.015V8.63C17.015 8.225 16.85 7.85 16.58 7.565L11.45 2.435C11.165 2.15 10.79 2 10.385 2H3.5C2.675 2 2 2.675 2 3.5V21.5C2 22.325 2.675 23 3.5 23H15.5C16.325 23 17 22.325 17 21.5H3.5Z" fill="black"/>
<path d="M7.23242 17.2275H5.95361V16.0366H7.23242C7.38184 16.0366 7.50195 16 7.59277 15.9268C7.68652 15.8535 7.75391 15.7524 7.79492 15.6235C7.83887 15.4917 7.86084 15.3438 7.86084 15.1797C7.86084 15.0039 7.83887 14.8413 7.79492 14.6919C7.75391 14.5425 7.68652 14.4224 7.59277 14.3315C7.50195 14.2378 7.38184 14.1909 7.23242 14.1909H6.50293V19.3984H5V13H7.23242C7.6748 13 8.05566 13.0938 8.375 13.2812C8.69727 13.4688 8.94482 13.7266 9.11768 14.0547C9.29346 14.3799 9.38135 14.752 9.38135 15.1709C9.38135 15.584 9.29346 15.9443 9.11768 16.252C8.94482 16.5596 8.69727 16.7998 8.375 16.9727C8.05566 17.1426 7.6748 17.2275 7.23242 17.2275Z" fill="black"/>
<path d="M11.9741 19.3984H10.8008L10.8096 18.2119H11.9741C12.1938 18.2119 12.3726 18.1636 12.5103 18.0669C12.6509 17.9702 12.7549 17.8105 12.8223 17.5879C12.8896 17.3623 12.9233 17.062 12.9233 16.687V15.707C12.9233 15.4258 12.9043 15.1885 12.8662 14.9951C12.8311 14.8018 12.7754 14.6465 12.6992 14.5293C12.623 14.4121 12.522 14.3271 12.396 14.2744C12.27 14.2188 12.1206 14.1909 11.9478 14.1909H10.7788V13H11.9478C12.3228 13 12.6626 13.0615 12.9673 13.1846C13.2749 13.3047 13.54 13.4834 13.7627 13.7207C13.9854 13.9551 14.1567 14.2393 14.2769 14.5732C14.397 14.9072 14.457 15.2881 14.457 15.7158V16.687C14.457 17.1118 14.397 17.4927 14.2769 17.8296C14.1567 18.1636 13.9854 18.4478 13.7627 18.6821C13.543 18.9165 13.2808 19.0952 12.9761 19.2183C12.6743 19.3384 12.3403 19.3984 11.9741 19.3984ZM11.6797 13V19.3984H10.1768V13H11.6797Z" fill="black"/>
<path d="M16.7334 13V19.3984H15.2305V13H16.7334ZM18.6978 15.6631V16.8496H16.3247V15.6631H18.6978ZM18.8779 13V14.1909H16.3247V13H18.8779Z" fill="black"/>
</svg>
