<svg id="Refresh-line-icon"
    xmlns="http://www.w3.org/2000/svg" viewBox="0 0 16 16">
    <defs>
        <style>
        .cls-1 {
            fill:none;
        }
        path {
            stroke: white;
            stroke-width: 1px;
        }
        </style>
    </defs>
    <path fill="none" d="M5.4,13.688a8.117,8.117,0,0,0,8.172-8.173c0-.124,0-.248-.008-.371A5.855,5.855,0,0,0,15,3.657a5.728,5.728,0,0,1-1.65.452A2.88,2.88,0,0,0,14.613,2.52a5.756,5.756,0,0,1-1.824.7A2.875,2.875,0,0,0,7.894,5.837a8.156,8.156,0,0,1-5.92-3,2.875,2.875,0,0,0,.89,3.835,2.853,2.853,0,0,1-1.3-.36v.036a2.873,2.873,0,0,0,2.3,2.816,2.87,2.87,0,0,1-1.3.049,2.877,2.877,0,0,0,2.684,2A5.772,5.772,0,0,1,1,12.4a8.134,8.134,0,0,0,4.4,1.288"/>
    <rect class="cls-1" width="16" height="16"/>
</svg>