<?xml version="1.0" encoding="utf-8"?>
<!-- Generator: Adobe Illustrator 24.2.1, SVG Export Plug-In . SVG Version: 6.00 Build 0)  -->
<svg version="1.1" id="Email-line-icon" xmlns="http://www.w3.org/2000/svg" xmlns:xlink="http://www.w3.org/1999/xlink" x="0px"
	 y="0px" viewBox="0 0 16 16" style="enable-background:new 0 0 16 16;" xml:space="preserve">
<path fill="white" d="M12.5,3h-9C2.122,3,1,4.122,1,5.5v5C1,11.879,2.122,13,3.5,13h9c1.379,0,2.5-1.121,2.5-2.5v-5C15,4.122,13.879,3,12.5,3z
	 M12.5,4c0.228,0,0.442,0.055,0.636,0.147L8,7.882L2.864,4.147C3.058,4.055,3.272,4,3.5,4H12.5z M14,10.5c0,0.827-0.673,1.5-1.5,1.5
	h-9C2.673,12,2,11.327,2,10.5v-5c0-0.229,0.056-0.444,0.148-0.638L8,9.118l5.852-4.256C13.944,5.056,14,5.271,14,5.5V10.5z"/>
</svg>
