<?xml version="1.0" encoding="UTF-8"?>
<svg width="122px" height="51px" viewBox="0 0 122 51" version="1.1" xmlns="http://www.w3.org/2000/svg" xmlns:xlink="http://www.w3.org/1999/xlink">
    <!-- Generator: Sketch 63.1 (92452) - https://sketch.com -->
    <title>Untitled 2</title>
    <desc>Created with Sketch.</desc>
    <g id="Page-1" stroke="none" stroke-width="1" fill="none" fill-rule="evenodd">
        <g id="IBM_LogoNObg" transform="translate(-10.000000, -19.000000)">
            <rect id="Rectangle-5-Copy-10" x="0" y="0" width="50" height="50"></rect>
            <g id="8-bar-/-reverse" transform="translate(10.677083, 19.352085)" fill="#4589FF" fill-rule="nonzero">
                <path d="M22.9271155,43.9486004 L22.9271155,46.9261479 L1.23242465e-11,46.9261479 L1.23242465e-11,43.9486004 L22.9271155,43.9486004 Z M58.4194813,43.9486004 C56.2458717,45.79468 53.4172017,46.9261479 50.3205521,46.9261479 L50.3205521,46.9261479 L26.2024177,46.9261479 L26.2024177,43.9486004 L58.4194813,43.9486004 Z M81.882555,43.918825 L81.882555,46.8963725 L65.5060442,46.8963725 L65.5060442,43.918825 L81.882555,43.918825 Z M117.91088,43.918825 L117.91088,46.8963725 L101.534368,46.8963725 L101.534368,43.918825 L117.91088,43.918825 Z M92.7506033,43.918825 L91.7084621,46.8665971 L90.66632,43.918825 L92.7506033,43.918825 Z M62.409395,37.695751 C62.11164,38.7378925 61.6947833,39.7502587 61.158825,40.6732984 L61.158825,40.6732984 L26.2024177,40.6732984 L26.2024177,37.695751 L62.409395,37.695751 Z M22.9271155,37.695751 L22.9271155,40.6732984 L1.23242465e-11,40.6732984 L1.23242465e-11,37.695751 L22.9271155,37.695751 Z M81.882555,37.6659754 L81.882555,40.6435229 L65.5060442,40.6435229 L65.5060442,37.6659754 L81.882555,37.6659754 Z M117.91088,37.6659754 L117.91088,40.6435229 L101.534368,40.6435229 L101.534368,37.6659754 L117.91088,37.6659754 Z M94.9539888,37.6659754 L93.9118467,40.6435229 L89.5050767,40.6435229 L88.4629354,37.6659754 L94.9539888,37.6659754 Z M16.3765111,31.4429013 L16.3765111,34.4204487 L6.55060442,34.4204487 L6.55060442,31.4429013 L16.3765111,31.4429013 Z M42.5789288,31.4429013 L42.5789288,34.4204487 L32.7530221,34.4204487 L32.7530221,31.4429013 L42.5789288,31.4429013 Z M62.4689458,31.4429013 C62.7071496,32.3957164 62.8262517,33.4080825 62.8262517,34.4204487 L62.8262517,34.4204487 L52.4048354,34.4204487 L52.4048354,31.4429013 L62.4689458,31.4429013 Z M81.882555,31.4131258 L81.882555,34.3906733 L72.0566488,34.3906733 L72.0566488,31.4131258 L81.882555,31.4131258 Z M111.360275,31.4131258 L111.360275,34.3906733 L101.534368,34.3906733 L101.534368,31.4131258 L111.360275,31.4131258 Z M97.1573742,31.4131258 L96.1152321,34.3906733 L87.3016921,34.3906733 L86.25955,31.4131258 L97.1573742,31.4131258 Z M16.3765111,25.1900516 L16.3765111,28.167599 L6.55060442,28.167599 L6.55060442,25.1900516 L16.3765111,25.1900516 Z M58.7470117,25.1900516 C59.6998267,26.0237648 60.5037646,27.036131 61.158825,28.167599 L61.158825,28.167599 L32.7530221,28.167599 L32.7530221,25.1900516 L58.7470117,25.1900516 Z M81.882555,25.1602761 L81.882555,28.1378236 L72.0566488,28.1378236 L72.0566488,25.1602761 L81.882555,25.1602761 Z M111.360275,25.1602761 L111.360275,28.1378236 L101.534368,28.1378236 L101.534368,25.1602761 L111.360275,25.1602761 Z M99.3905346,25.1602761 L98.3186175,28.1378236 L85.0983067,28.1378236 L84.0263896,25.1602761 L99.3905346,25.1602761 Z M16.3765111,18.9372019 L16.3765111,21.9147493 L6.55060442,21.9147493 L6.55060442,18.9372019 L16.3765111,18.9372019 Z M61.158825,18.9372019 C60.5037646,20.0388945 59.6998267,21.0512605 58.7470117,21.9147493 L58.7470117,21.9147493 L32.7530221,21.9147493 L32.7530221,18.9372019 L61.158825,18.9372019 Z M111.360275,18.9074264 L111.360275,21.8849739 L101.534368,21.8849739 L101.534368,19.0563037 L100.522002,21.8849739 L91.91689,21.8849739 L92.9292562,18.9074264 L111.360275,18.9074264 Z M90.4876679,18.9074264 L91.5000333,21.8849739 L82.8949213,21.8849739 L81.882555,19.0563037 L81.882555,21.8849739 L72.0566488,21.8849739 L72.0566488,18.9074264 L90.4876679,18.9074264 Z M16.3765111,12.6843522 L16.3765111,15.6618997 L6.55060442,15.6618997 L6.55060442,12.6843522 L16.3765111,12.6843522 Z M42.5789288,12.6843522 L42.5789288,15.6618997 L32.7530221,15.6618997 L32.7530221,12.6843522 L42.5789288,12.6843522 Z M62.8262517,12.6843522 C62.8262517,13.6967183 62.7071496,14.7090845 62.4689458,15.6618997 L62.4689458,15.6618997 L52.4048354,15.6618997 L52.4048354,12.6843522 L62.8262517,12.6843522 Z M111.360275,12.6545768 L111.360275,15.6321242 L94.0905,15.6321242 L95.1028658,12.6545768 L111.360275,12.6545768 Z M88.3140583,12.6545768 L89.3264238,15.6321242 L72.0566488,15.6321242 L72.0566488,12.6545768 L88.3140583,12.6545768 Z M22.9271155,6.43150254 L22.9271155,9.40905 L1.23242465e-11,9.40905 L1.23242465e-11,6.43150254 L22.9271155,6.43150254 Z M61.1290496,6.43150254 C61.6650079,7.35454225 62.0818646,8.36690833 62.3796196,9.40905 L62.3796196,9.40905 L26.2024177,9.40905 L26.2024177,6.43150254 L61.1290496,6.43150254 Z M117.91088,6.40172704 L117.91088,9.37927454 L96.2343338,9.37927454 L97.2764758,6.40172704 L117.91088,6.40172704 Z M86.1404483,6.40172704 L87.1825896,9.37927454 L65.5060442,9.37927454 L65.5060442,6.40172704 L86.1404483,6.40172704 Z M22.9271155,0.178652848 L22.9271155,3.15620031 L1.23242465e-11,3.15620031 L1.23242465e-11,0.178652848 L22.9271155,0.178652848 Z M50.3205521,0.178652848 L50.6399233,0.182671908 C53.6115033,0.257534843 56.3208238,1.3737788 58.4194813,3.15620031 L58.4194813,3.15620031 L26.2024177,3.15620031 L26.2024177,0.178652848 L50.3205521,0.178652848 Z M117.91088,0.148877373 L117.91088,3.12642484 L98.4079433,3.12642484 L99.4500854,0.148877373 L117.91088,0.148877373 Z M83.9668388,0.148877373 L85.00898,3.12642484 L65.5060442,3.12642484 L65.5060442,0.148877373 L83.9668388,0.148877373 Z" id="Combined-Shape"></path>
            </g>
        </g>
    </g>
</svg>